<mxfile host="app.diagrams.net" modified="2024-08-06T01:56:39.175Z" agent="Mozilla/5.0 (X11; Linux x86_64; rv:128.0) Gecko/20100101 Firefox/128.0" etag="zmcYmrmvl2ucgUPqg_2v" version="24.2.1" type="device">
  <diagram name="Page-1" id="WdRzlpsvn2Tba9XeZmaN">
    <mxGraphModel dx="1044" dy="580" grid="1" gridSize="10" guides="1" tooltips="1" connect="1" arrows="1" fold="1" page="1" pageScale="1" pageWidth="1169" pageHeight="827" background="none" math="0" shadow="0">
      <root>
        <mxCell id="0" />
        <mxCell id="1" parent="0" />
        <mxCell id="n87EDvqpTR0pAGlPv8mh-90" value="Usuario" style="shape=umlActor;verticalLabelPosition=bottom;verticalAlign=top;html=1;outlineConnect=0;" vertex="1" parent="1">
          <mxGeometry x="80" y="80" width="40" height="80" as="geometry" />
        </mxCell>
        <mxCell id="n87EDvqpTR0pAGlPv8mh-92" value="&lt;div&gt;&amp;lt;&amp;lt;CRUD&amp;gt;&amp;gt;&lt;/div&gt;&lt;div&gt;gerenciar&lt;/div&gt;&lt;div&gt;cartao&lt;/div&gt;&lt;div&gt;apostado&lt;br&gt;&lt;/div&gt;" style="ellipse;whiteSpace=wrap;html=1;" vertex="1" parent="1">
          <mxGeometry x="320" y="20" width="120" height="70" as="geometry" />
        </mxCell>
        <mxCell id="n87EDvqpTR0pAGlPv8mh-94" value="" style="endArrow=none;html=1;rounded=0;" edge="1" parent="1" source="n87EDvqpTR0pAGlPv8mh-90">
          <mxGeometry width="50" height="50" relative="1" as="geometry">
            <mxPoint x="320" y="150" as="sourcePoint" />
            <mxPoint x="540" y="120" as="targetPoint" />
          </mxGeometry>
        </mxCell>
        <mxCell id="n87EDvqpTR0pAGlPv8mh-97" value="" style="endArrow=none;html=1;rounded=0;entryX=0.5;entryY=1;entryDx=0;entryDy=0;" edge="1" parent="1" target="n87EDvqpTR0pAGlPv8mh-92">
          <mxGeometry width="50" height="50" relative="1" as="geometry">
            <mxPoint x="380" y="120" as="sourcePoint" />
            <mxPoint x="370" y="100" as="targetPoint" />
          </mxGeometry>
        </mxCell>
        <mxCell id="n87EDvqpTR0pAGlPv8mh-128" value="&lt;div&gt;&amp;lt;&amp;lt;CRUD&amp;gt;&amp;gt;&lt;/div&gt;&lt;div&gt;gerenciar&lt;/div&gt;concurso" style="ellipse;whiteSpace=wrap;html=1;" vertex="1" parent="1">
          <mxGeometry x="160" y="20" width="120" height="70" as="geometry" />
        </mxCell>
        <mxCell id="n87EDvqpTR0pAGlPv8mh-129" value="&lt;div&gt;&amp;lt;&amp;lt;CRUD&amp;gt;&amp;gt;&lt;/div&gt;&lt;div&gt;gerenciar&lt;/div&gt;&lt;div&gt;tipo jogo&lt;br&gt;&lt;/div&gt;" style="ellipse;whiteSpace=wrap;html=1;" vertex="1" parent="1">
          <mxGeometry x="480" y="20" width="120" height="70" as="geometry" />
        </mxCell>
        <mxCell id="n87EDvqpTR0pAGlPv8mh-131" value="&lt;div&gt;registrar resultado&lt;/div&gt;&lt;div&gt;concurso&lt;br&gt;&lt;/div&gt;" style="ellipse;whiteSpace=wrap;html=1;" vertex="1" parent="1">
          <mxGeometry x="240" y="160" width="120" height="70" as="geometry" />
        </mxCell>
        <mxCell id="n87EDvqpTR0pAGlPv8mh-132" value="&lt;div&gt;apresentar&lt;/div&gt;&lt;div&gt;relatorio&lt;/div&gt;&lt;div&gt;semanal&lt;br&gt;&lt;/div&gt;" style="ellipse;whiteSpace=wrap;html=1;" vertex="1" parent="1">
          <mxGeometry x="400" y="160" width="120" height="70" as="geometry" />
        </mxCell>
        <mxCell id="n87EDvqpTR0pAGlPv8mh-133" value="" style="endArrow=none;html=1;rounded=0;entryX=0.5;entryY=1;entryDx=0;entryDy=0;" edge="1" parent="1" target="n87EDvqpTR0pAGlPv8mh-128">
          <mxGeometry width="50" height="50" relative="1" as="geometry">
            <mxPoint x="220" y="120" as="sourcePoint" />
            <mxPoint x="380" y="130" as="targetPoint" />
          </mxGeometry>
        </mxCell>
        <mxCell id="n87EDvqpTR0pAGlPv8mh-134" value="" style="endArrow=none;html=1;rounded=0;exitX=0.5;exitY=0;exitDx=0;exitDy=0;" edge="1" parent="1" source="n87EDvqpTR0pAGlPv8mh-131">
          <mxGeometry width="50" height="50" relative="1" as="geometry">
            <mxPoint x="330" y="180" as="sourcePoint" />
            <mxPoint x="300" y="120" as="targetPoint" />
          </mxGeometry>
        </mxCell>
        <mxCell id="n87EDvqpTR0pAGlPv8mh-135" value="" style="endArrow=none;html=1;rounded=0;entryX=0.5;entryY=0;entryDx=0;entryDy=0;" edge="1" parent="1" target="n87EDvqpTR0pAGlPv8mh-132">
          <mxGeometry width="50" height="50" relative="1" as="geometry">
            <mxPoint x="460" y="120" as="sourcePoint" />
            <mxPoint x="380" y="130" as="targetPoint" />
          </mxGeometry>
        </mxCell>
        <mxCell id="n87EDvqpTR0pAGlPv8mh-136" value="" style="endArrow=none;html=1;rounded=0;entryX=0.5;entryY=1;entryDx=0;entryDy=0;" edge="1" parent="1" target="n87EDvqpTR0pAGlPv8mh-129">
          <mxGeometry width="50" height="50" relative="1" as="geometry">
            <mxPoint x="540" y="120" as="sourcePoint" />
            <mxPoint x="380" y="130" as="targetPoint" />
          </mxGeometry>
        </mxCell>
        <mxCell id="n87EDvqpTR0pAGlPv8mh-137" value="&lt;div&gt;apresentar&lt;/div&gt;&lt;div&gt;valor premio&lt;br&gt;&lt;/div&gt;" style="ellipse;whiteSpace=wrap;html=1;" vertex="1" parent="1">
          <mxGeometry x="640" y="160" width="120" height="70" as="geometry" />
        </mxCell>
        <mxCell id="n87EDvqpTR0pAGlPv8mh-138" value="" style="endArrow=classic;html=1;rounded=0;entryX=1;entryY=0.5;entryDx=0;entryDy=0;exitX=0;exitY=0.5;exitDx=0;exitDy=0;dashed=1;" edge="1" parent="1" source="n87EDvqpTR0pAGlPv8mh-137" target="n87EDvqpTR0pAGlPv8mh-132">
          <mxGeometry width="50" height="50" relative="1" as="geometry">
            <mxPoint x="600" y="170" as="sourcePoint" />
            <mxPoint x="650" y="120" as="targetPoint" />
          </mxGeometry>
        </mxCell>
        <mxCell id="n87EDvqpTR0pAGlPv8mh-139" value="&amp;lt;&amp;lt;extend&amp;gt;&amp;gt;" style="text;html=1;align=center;verticalAlign=middle;whiteSpace=wrap;rounded=0;" vertex="1" parent="1">
          <mxGeometry x="555" y="160" width="60" height="30" as="geometry" />
        </mxCell>
      </root>
    </mxGraphModel>
  </diagram>
</mxfile>
